<svg width="400" height="300" viewBox="0 0 400 300" xmlns="http://www.w3.org/2000/svg">
  <defs>
    <linearGradient id="bg" x1="0%" y1="0%" x2="100%" y2="100%">
      <stop offset="0%" style="stop-color:#E6F3FF;stop-opacity:1" />
      <stop offset="100%" style="stop-color:#B3E5FC;stop-opacity:1" />
    </linearGradient>
    <linearGradient id="sorbet" x1="0%" y1="0%" x2="100%" y2="100%">
      <stop offset="0%" style="stop-color:#FF6B9D;stop-opacity:1" />
      <stop offset="50%" style="stop-color:#4ECDC4;stop-opacity:1" />
      <stop offset="100%" style="stop-color:#45B7D1;stop-opacity:1" />
    </linearGradient>
  </defs>
  
  <!-- Background -->
  <rect width="400" height="300" fill="url(#bg)"/>
  
  <!-- Sorbet bowl -->
  <ellipse cx="200" cy="200" rx="80" ry="40" fill="#F5F5F5" stroke="#E0E0E0" stroke-width="2"/>
  
  <!-- Sorbet scoops -->
  <circle cx="180" cy="180" r="30" fill="#FF6B9D"/>
  <circle cx="220" cy="180" r="30" fill="#4ECDC4"/>
  <circle cx="200" cy="150" r="30" fill="#45B7D1"/>
  
  <!-- Fruit decorations -->
  <circle cx="160" cy="160" r="5" fill="#FFD700"/>
  <circle cx="240" cy="160" r="5" fill="#FF6347"/>
  <circle cx="200" cy="130" r="5" fill="#32CD32"/>
  
  <!-- Mint leaves -->
  <path d="M 190 140 Q 195 135 200 140 Q 205 135 210 140" stroke="#32CD32" stroke-width="3" fill="none"/>
  <path d="M 185 145 Q 190 140 195 145 Q 200 140 205 145" stroke="#32CD32" stroke-width="2" fill="none"/>
  
  <!-- Decorative elements -->
  <circle cx="80" cy="60" r="20" fill="#FF6B9D" opacity="0.3"/>
  <circle cx="320" cy="80" r="25" fill="#4ECDC4" opacity="0.3"/>
  <circle cx="120" cy="220" r="15" fill="#45B7D1" opacity="0.4"/>
  <circle cx="280" cy="240" r="18" fill="#FF6B9D" opacity="0.3"/>
</svg>
