<svg width="400" height="300" viewBox="0 0 400 300" xmlns="http://www.w3.org/2000/svg">
  <defs>
    <linearGradient id="bg" x1="0%" y1="0%" x2="100%" y2="100%">
      <stop offset="0%" style="stop-color:#FFF8DC;stop-opacity:1" />
      <stop offset="100%" style="stop-color:#F0E68C;stop-opacity:1" />
    </linearGradient>
    <linearGradient id="yogurt" x1="0%" y1="0%" x2="100%" y2="100%">
      <stop offset="0%" style="stop-color:#FFFFFF;stop-opacity:1" />
      <stop offset="100%" style="stop-color:#F0F8FF;stop-opacity:1" />
    </linearGradient>
  </defs>
  
  <!-- Background -->
  <rect width="400" height="300" fill="url(#bg)"/>
  
  <!-- Yogurt cup -->
  <rect x="160" y="180" width="80" height="60" rx="5" fill="#F5F5F5" stroke="#E0E0E0" stroke-width="2"/>
  
  <!-- Yogurt -->
  <ellipse cx="200" cy="190" rx="35" ry="25" fill="url(#yogurt)"/>
  
  <!-- Berries -->
  <circle cx="185" cy="175" r="6" fill="#FF69B4"/>
  <circle cx="215" cy="175" r="6" fill="#FF69B4"/>
  <circle cx="200" cy="165" r="6" fill="#FF69B4"/>
  
  <!-- Granola -->
  <rect x="175" cy="185" width="8" height="3" rx="1" fill="#D2691E"/>
  <rect x="190" cy="188" width="6" height="3" rx="1" fill="#D2691E"/>
  <rect x="205" cy="186" width="7" height="3" rx="1" fill="#D2691E"/>
  <rect x="185" cy="192" width="5" height="3" rx="1" fill="#D2691E"/>
  <rect x="200" cy="194" width="6" height="3" rx="1" fill="#D2691E"/>
  
  <!-- Honey drizzle -->
  <path d="M 190 170 Q 200 175 210 170" stroke="#FFD700" stroke-width="3" fill="none"/>
  <path d="M 185 180 Q 195 185 205 180" stroke="#FFD700" stroke-width="2" fill="none"/>
  
  <!-- Spoon -->
  <ellipse cx="250" cy="200" rx="15" ry="8" fill="#C0C0C0"/>
  <rect x="245" y="200" width="2" height="30" fill="#C0C0C0"/>
  
  <!-- Decorative elements -->
  <circle cx="100" cy="100" r="25" fill="#FFD700" opacity="0.4"/>
  <circle cx="300" cy="120" r="20" fill="#FF69B4" opacity="0.3"/>
  <circle cx="150" cy="250" r="15" fill="#32CD32" opacity="0.4"/>
  <circle cx="250" cy="260" r="18" fill="#FF6347" opacity="0.3"/>
</svg>

