<svg width="400" height="300" viewBox="0 0 400 300" xmlns="http://www.w3.org/2000/svg">
  <defs>
    <linearGradient id="bg" x1="0%" y1="0%" x2="100%" y2="100%">
      <stop offset="0%" style="stop-color:#E6F3FF;stop-opacity:1" />
      <stop offset="100%" style="stop-color:#B3E5FC;stop-opacity:1" />
    </linearGradient>
    <linearGradient id="coconut" x1="0%" y1="0%" x2="100%" y2="100%">
      <stop offset="0%" style="stop-color:#FFFFFF;stop-opacity:1" />
      <stop offset="100%" style="stop-color:#F0F8FF;stop-opacity:1" />
    </linearGradient>
  </defs>
  
  <!-- Background -->
  <rect width="400" height="300" fill="url(#bg)"/>
  
  <!-- Ice cream bowl -->
  <ellipse cx="200" cy="200" rx="70" ry="40" fill="#F5F5F5" stroke="#E0E0E0" stroke-width="2"/>
  
  <!-- Coconut lime ice cream -->
  <circle cx="180" cy="180" r="30" fill="url(#coconut)"/>
  <circle cx="220" cy="180" r="30" fill="url(#coconut)"/>
  
  <!-- Lime zest -->
  <circle cx="170" cy="170" r="3" fill="#32CD32"/>
  <circle cx="190" cy="175" r="2" fill="#32CD32"/>
  <circle cx="210" cy="170" r="3" fill="#32CD32"/>
  <circle cx="230" cy="175" r="2" fill="#32CD32"/>
  
  <!-- Coconut flakes -->
  <rect x="175" cy="185" width="4" height="2" rx="1" fill="#F5DEB3"/>
  <rect x="185" cy="188" width="3" height="2" rx="1" fill="#F5DEB3"/>
  <rect x="195" cy="186" width="4" height="2" rx="1" fill="#F5DEB3"/>
  <rect x="205" cy="189" width="3" height="2" rx="1" fill="#F5DEB3"/>
  
  <!-- Decorative elements -->
  <circle cx="100" cy="80" r="20" fill="#32CD32" opacity="0.4"/>
  <circle cx="300" cy="100" r="25" fill="#B3E5FC" opacity="0.3"/>
  <circle cx="150" cy="220" r="15" fill="#F0F8FF" opacity="0.4"/>
  <circle cx="250" cy="240" r="18" fill="#32CD32" opacity="0.3"/>
</svg>