<svg width="400" height="300" viewBox="0 0 400 300" xmlns="http://www.w3.org/2000/svg">
  <defs>
    <linearGradient id="bg" x1="0%" y1="0%" x2="100%" y2="100%">
      <stop offset="0%" style="stop-color:#FFF8DC;stop-opacity:1" />
      <stop offset="100%" style="stop-color:#F5DEB3;stop-opacity:1" />
    </linearGradient>
    <linearGradient id="vanilla" x1="0%" y1="0%" x2="100%" y2="100%">
      <stop offset="0%" style="stop-color:#FFFFFF;stop-opacity:1" />
      <stop offset="100%" style="stop-color:#F0E68C;stop-opacity:1" />
    </linearGradient>
  </defs>
  
  <!-- Background -->
  <rect width="400" height="300" fill="url(#bg)"/>
  
  <!-- Ice cream cone -->
  <path d="M 200 250 L 180 200 L 220 200 Z" fill="#D2691E"/>
  
  <!-- Vanilla ice cream -->
  <ellipse cx="200" cy="190" rx="25" ry="35" fill="url(#vanilla)"/>
  
  <!-- Vanilla beans -->
  <path d="M 190 175 Q 195 170 200 175 Q 205 170 210 175" stroke="#8B4513" stroke-width="2" fill="none"/>
  <path d="M 185 180 Q 190 175 195 180 Q 200 175 205 180" stroke="#8B4513" stroke-width="1" fill="none"/>
  <path d="M 195 185 Q 200 180 205 185" stroke="#8B4513" stroke-width="1" fill="none"/>
  
  <!-- Decorative elements -->
  <circle cx="100" cy="80" r="20" fill="#F0E68C" opacity="0.6"/>
  <circle cx="300" cy="100" r="25" fill="#FFF8DC" opacity="0.5"/>
  <circle cx="150" cy="200" r="15" fill="#F5DEB3" opacity="0.4"/>
  <circle cx="250" cy="180" r="18" fill="#F0E68C" opacity="0.3"/>
</svg>